<?xml version="1.0" encoding="utf-8"?>
<!-- Generator: Adobe Illustrator 16.0.0, SVG Export Plug-In . SVG Version: 6.00 Build 0)  -->
<!DOCTYPE svg PUBLIC "-//W3C//DTD SVG 1.1//EN" "http://www.w3.org/Graphics/SVG/1.1/DTD/svg11.dtd">
<svg version="1.1" id="Layer_1" xmlns="http://www.w3.org/2000/svg" xmlns:xlink="http://www.w3.org/1999/xlink" x="0px" y="0px"
	 width="232px" height="75px" viewBox="0 0 232 75" enable-background="new 0 0 232 75" xml:space="preserve">
<path fill="#FFFFFF" d="M232,69h-12.044c0.001-0.019,0.004-0.037,0.004-0.056c0-1.916-1.225-3.532-2.927-4.148
	c0-0.021,0.012-0.038,0.012-0.062c0-0.65-0.416-1.192-0.996-1.405l-0.22-0.675c0.032-0.057,0.073-0.111,0.073-0.182
	c0-0.144-0.094-0.243-0.214-0.302l-0.132-2.067c0-0.007-0.012-0.013-0.021-0.013c-0.012,0-0.021,0.006-0.021,0.013l-0.135,2.065
	c-0.12,0.06-0.214,0.16-0.214,0.303c0,0.07,0.041,0.126,0.076,0.182l-0.223,0.674c-0.577,0.212-0.993,0.756-0.993,1.406
	c0,0.023,0.009,0.041,0.012,0.062c-1.705,0.617-2.93,2.232-2.93,4.148c0,0.019,0.006,0.037,0.006,0.056h-1.465v-6.41h0.079
	c0.193,0,0.349-0.155,0.349-0.349v-0.199c0-0.19-0.155-0.349-0.349-0.349h-0.472c0.018-0.129,0.032-0.258,0.032-0.393
	c0-0.938-0.495-1.758-1.236-2.215c-0.457-0.281-0.85-0.652-1.163-1.084c0.059-0.056,0.097-0.132,0.097-0.22
	c0-0.123-0.073-0.227-0.182-0.272l-0.076-1.182h-0.088l-0.076,1.182c-0.108,0.045-0.179,0.149-0.179,0.272
	c0,0.088,0.035,0.164,0.094,0.22c-0.311,0.434-0.703,0.8-1.163,1.084c-0.741,0.457-1.236,1.277-1.236,2.215
	c0,0.135,0.015,0.264,0.032,0.393h-0.457c-0.193,0-0.352,0.158-0.352,0.349v0.199c0,0.193,0.158,0.349,0.352,0.349h0.064v4.898
	h-1.134c0.293-0.554,0.454-1.141,0.454-1.75c0-2.128-1.937-3.989-4.84-5.03c-1.893-0.678-3.504-1.592-4.761-2.654
	c0.047-0.092,0.082-0.193,0.082-0.306c0-0.278-0.17-0.516-0.407-0.621l-0.176-2.684h-0.202l-0.173,2.684
	c-0.24,0.105-0.407,0.343-0.407,0.621c0,0.113,0.032,0.214,0.082,0.308c-1.257,1.066-2.851,1.969-4.758,2.653
	c-2.906,1.042-4.843,2.902-4.843,5.03c0,0.354,0.062,0.7,0.164,1.039h-0.829c0.267-0.861,0.41-1.778,0.41-2.726
	c0-4.727-3.56-8.616-8.142-9.149l-0.58-1.771c-0.009-0.018-0.059-0.034-0.135-0.047l-0.319-4.907c0-0.018-0.018-0.032-0.041-0.032
	c-0.021,0-0.038,0.015-0.041,0.032l-0.316,4.907c-0.076,0.013-0.129,0.029-0.135,0.047l-0.583,1.771
	c-3.431,0.4-6.284,2.681-7.503,5.785l-0.1-5.171h0.486v-0.92h-0.504l-0.126-6.557h0.557v-0.532h-0.328v-0.18h-0.328v-2.385h0.328
	v-0.229h-0.381h-0.138c0.047-0.144,0.07-0.293,0.07-0.451c0-0.545-0.29-1.024-0.727-1.292c-0.264-0.167-0.495-0.382-0.677-0.636
	c0.032-0.031,0.056-0.076,0.056-0.126c0-0.073-0.044-0.133-0.105-0.161l-0.038-0.612c0.023,0.006,0.053,0.009,0.079,0.009
	c0.231,0,0.422-0.173,0.451-0.396c-0.062,0.127-0.193,0.217-0.343,0.217c-0.214,0-0.384-0.171-0.384-0.382
	c0-0.152,0.088-0.283,0.217-0.344c-0.226,0.029-0.396,0.22-0.396,0.451c0,0.199,0.132,0.369,0.313,0.428l-0.041,0.63
	c-0.062,0.028-0.105,0.088-0.105,0.161c0,0.05,0.021,0.095,0.056,0.126c-0.182,0.255-0.41,0.469-0.683,0.636
	c-0.431,0.268-0.721,0.747-0.721,1.292c0,0.158,0.023,0.308,0.067,0.451h-0.135h-0.384v0.229h0.319v2.385h-0.319v0.18H160.3v0.532
	h0.557l-0.123,6.557h-0.507v0.92h0.489l-0.138,7.162h-0.718v0.918h0.7l-0.062,3.242h-2.49c0.785-1.477,1.21-3.045,1.21-4.671
	c0-5.675-5.165-10.638-12.914-13.418c-5.036-1.805-9.378-4.207-12.724-7.034c0.141-0.259,0.246-0.542,0.246-0.861
	c0-0.744-0.448-1.377-1.087-1.661l-0.466-7.157h-0.536l-0.463,7.157c-0.639,0.284-1.09,0.917-1.09,1.661
	c0,0.319,0.105,0.604,0.249,0.864c-3.349,2.836-7.646,5.21-12.726,7.031c-1.444,0.519-2.798,1.113-4.046,1.772V29.834h0.133
	c0.312,0,0.564-0.252,0.564-0.564V28.95c0-0.312-0.252-0.564-0.564-0.564h-0.765c0.032-0.209,0.052-0.422,0.052-0.639
	c0-1.515-0.798-2.839-1.999-3.58c-0.735-0.456-1.376-1.052-1.882-1.755c0.095-0.086,0.154-0.212,0.154-0.352
	c0-0.198-0.119-0.369-0.289-0.442l-0.125-1.91H108.8l-0.122,1.91c-0.171,0.073-0.291,0.245-0.291,0.442
	c0,0.139,0.06,0.265,0.154,0.354c-0.505,0.702-1.14,1.292-1.881,1.752c-1.199,0.741-2,2.065-2,3.58c0,0.217,0.021,0.429,0.053,0.639
	h-0.741c-0.313,0-0.564,0.252-0.564,0.564v0.321c0,0.312,0.25,0.564,0.564,0.564h0.108v13.279
	c-1.499-4.547-4.536-8.394-8.539-10.866c-3.531-2.183-6.573-5.068-8.996-8.426c0.437-0.425,0.715-1.011,0.715-1.67
	c0-0.951-0.574-1.764-1.392-2.124L85.343,11.9c0.35,0.063,0.705,0.108,1.073,0.108c3.065,0,5.588-2.287,5.975-5.247
	c-0.817,1.699-2.552,2.874-4.562,2.874c-2.802,0-5.074-2.271-5.074-5.071c0-2.013,1.176-3.745,2.875-4.564
	c-2.96,0.386-5.25,2.909-5.25,5.977c0,2.672,1.749,4.91,4.157,5.704l-0.539,8.347c-0.817,0.36-1.392,1.173-1.392,2.124
	c0,0.659,0.278,1.248,0.715,1.67c-2.421,3.366-5.438,6.227-8.995,8.426c-5.753,3.552-9.587,9.902-9.587,17.162
	c0,2.08,0.316,4.084,0.899,5.972h-3.677h-1.157c0.023-0.318,0.072-0.628,0.072-0.954c0-6.691-5.038-12.199-11.526-12.954
	l-0.825-2.506c-0.009-0.026-0.082-0.048-0.189-0.067l-0.451-6.949c-0.001-0.025-0.028-0.044-0.059-0.044
	c-0.03,0-0.056,0.019-0.06,0.044l-0.45,6.949c-0.105,0.019-0.179,0.041-0.188,0.067l-0.825,2.506
	c-6.488,0.754-11.528,6.262-11.528,12.954c0,1.345,0.205,2.64,0.581,3.86h-4.441v1.958h2.067V69h-4.708l-0.243-12.703h1.229v-1.614
	h-1.258l-0.24-12.579h0.853v-1.616h-0.884l-0.219-11.517h0.974v-0.935h-0.571v-0.312h-0.579v-4.189h0.579v-0.403h-0.674h-0.238
	c0.081-0.249,0.121-0.514,0.121-0.79c0-0.959-0.507-1.799-1.271-2.271c-0.467-0.292-0.875-0.671-1.191-1.115
	c0.058-0.056,0.096-0.135,0.096-0.223c0-0.126-0.077-0.234-0.184-0.281l-0.07-1.077c0.045,0.009,0.092,0.013,0.142,0.013
	c0.406,0,0.74-0.302,0.792-0.694c-0.109,0.226-0.338,0.381-0.604,0.381c-0.372,0-0.672-0.299-0.672-0.671
	c0-0.267,0.156-0.498,0.38-0.605c-0.39,0.051-0.693,0.385-0.693,0.791c0,0.356,0.231,0.652,0.55,0.756l-0.072,1.106
	c-0.107,0.047-0.184,0.155-0.184,0.281c0,0.088,0.038,0.167,0.098,0.223c-0.319,0.448-0.724,0.823-1.196,1.115
	c-0.762,0.472-1.269,1.311-1.269,2.271c0,0.275,0.04,0.541,0.121,0.79H21.66h-0.675v0.403h0.562v4.189h-0.562v0.312h-0.578v0.935
	h0.98l-0.22,11.517h-0.888v1.616h0.856l-0.239,12.579h-1.263v1.614h1.231L20.621,69h-2.385V45.322h0.202
	c0.474,0,0.857-0.384,0.857-0.858v-0.488c0-0.478-0.384-0.861-0.857-0.861h-1.168c0.049-0.318,0.083-0.643,0.083-0.973
	c0-2.307-1.219-4.327-3.046-5.457c-1.125-0.694-2.099-1.605-2.868-2.675c0.142-0.135,0.233-0.324,0.233-0.536
	c0-0.302-0.182-0.563-0.442-0.677l-0.189-2.909h-0.215l-0.189,2.909c-0.262,0.114-0.443,0.375-0.443,0.677
	c0,0.212,0.092,0.401,0.235,0.539c-0.772,1.069-1.737,1.972-2.868,2.672c-1.829,1.129-3.048,3.149-3.048,5.457
	c0,0.33,0.032,0.655,0.081,0.973H3.461c-0.476,0-0.86,0.384-0.86,0.861v0.488c0,0.475,0.384,0.858,0.86,0.858h0.165V69H0v0.397V75
	h223.625H232V69z M6.935,57.51H4.573v-6.683c0-1.699,0.499-3.126,1.18-3.563c0.683,0.437,1.181,1.863,1.181,3.563V57.51z
	 M13.924,57.51H7.938v-7.39c0-1.876,1.268-3.456,2.992-3.936c1.726,0.48,2.994,2.06,2.994,3.936V57.51z M17.31,57.51h-2.364v-6.683
	c0-1.699,0.501-3.126,1.182-3.563c0.681,0.437,1.182,1.863,1.182,3.563V57.51z M22.605,27.721h-0.564v-3.429
	c0-0.125,0.102-0.227,0.227-0.227h0.11c0.126,0,0.228,0.103,0.228,0.227V27.721z M23.663,27.727h-0.564V24.29
	c0-0.125,0.102-0.226,0.226-0.226h0.112c0.125,0,0.226,0.101,0.226,0.226V27.727z M24.724,27.725h-0.563V24.29
	c0-0.125,0.101-0.226,0.226-0.226h0.112c0.125,0,0.226,0.101,0.226,0.226V27.725z M25.783,27.725H25.22V24.29
	c0-0.125,0.101-0.226,0.228-0.226h0.11c0.125,0,0.226,0.101,0.226,0.226V27.725z M26.843,27.725h-0.564V24.29
	c0-0.125,0.102-0.226,0.226-0.226h0.11c0.126,0,0.228,0.101,0.228,0.226V27.725z M106.251,37.828H104.7v-4.381
	c0-1.115,0.328-2.052,0.776-2.338c0.447,0.286,0.775,1.223,0.775,2.338V37.828z M110.836,37.828h-3.929v-4.846
	c0-1.233,0.832-2.269,1.964-2.585c1.133,0.316,1.964,1.352,1.964,2.585V37.828z M113.056,37.828h-1.549v-4.381
	c0-1.115,0.328-2.052,0.776-2.338c0.446,0.286,0.773,1.223,0.773,2.338V37.828z M161.551,47.329h-0.319v-1.957
	c0-0.072,0.056-0.129,0.129-0.129h0.062c0.07,0,0.129,0.057,0.129,0.129V47.329z M162.758,47.326h-0.322v-1.954
	c0-0.072,0.059-0.129,0.129-0.129h0.062c0.073,0,0.132,0.057,0.132,0.129V47.326z M163.362,47.326h-0.322v-1.954
	c0-0.072,0.059-0.129,0.129-0.129h0.064c0.07,0,0.129,0.057,0.129,0.129V47.326z M163.965,47.326h-0.322v-1.954
	c0-0.072,0.059-0.129,0.129-0.129h0.064c0.07,0,0.129,0.057,0.129,0.129V47.326z M205.066,67.488h-0.621h-0.337v-2.663
	c0-0.69,0.199-1.27,0.478-1.447c0.275,0.177,0.48,0.757,0.48,1.447V67.488z M207.902,67.535h-1.843v-0.047h-0.589v-2.95
	c0-0.765,0.516-1.403,1.216-1.6c0.7,0.196,1.216,0.835,1.216,1.6V67.535z M209.273,67.535h-0.958v-2.71
	c0-0.69,0.202-1.27,0.48-1.447c0.275,0.177,0.478,0.757,0.478,1.447V67.535z"/>
</svg>
