<?xml version="1.0" encoding="utf-8"?>
<!-- Generator: Adobe Illustrator 16.0.0, SVG Export Plug-In . SVG Version: 6.00 Build 0)  -->
<!DOCTYPE svg PUBLIC "-//W3C//DTD SVG 1.1//EN" "http://www.w3.org/Graphics/SVG/1.1/DTD/svg11.dtd">
<svg version="1.1" id="Layer_1" xmlns="http://www.w3.org/2000/svg" xmlns:xlink="http://www.w3.org/1999/xlink" x="0px" y="0px"
	 width="100px" height="100px" viewBox="0 0 100 100" enable-background="new 0 0 100 100" xml:space="preserve">
<rect fill-rule="evenodd" clip-rule="evenodd" fill="#58616B" width="100" height="100"/>
<g>
	<defs>
		<rect id="SVGID_1_" x="0.361" y="-0.002" width="100" height="100"/>
	</defs>
	<clipPath id="SVGID_2_">
		<use xlink:href="#SVGID_1_"  overflow="visible"/>
	</clipPath>
	<g clip-path="url(#SVGID_2_)">
		
			<polygon fill-rule="evenodd" clip-rule="evenodd" fill="#5B6D7C" stroke="#5FA6A4" stroke-width="1.1999" stroke-miterlimit="2.6131" points="
			14.161,-12.288 10.558,-6.047 6.955,0.193 10.558,6.434 14.161,12.674 21.367,12.674 28.573,12.674 32.176,6.433 35.779,0.193 
			32.176,-6.048 28.573,-12.288 21.367,-12.288 		"/>
		
			<polygon fill-rule="evenodd" clip-rule="evenodd" fill="#5B6D7C" stroke="#5FA6A4" stroke-width="1.1999" stroke-miterlimit="2.6131" points="
			14.161,112.288 10.558,106.047 6.955,99.807 10.558,93.566 14.161,87.325 21.367,87.325 28.573,87.325 32.176,93.566 
			35.779,99.807 32.176,106.047 28.573,112.288 21.367,112.288 		"/>
		
			<polygon fill-rule="evenodd" clip-rule="evenodd" fill="#5B6D7C" stroke="#5FA6A4" stroke-width="1.1999" stroke-miterlimit="2.6131" points="
			72.104,-12.288 68.502,-6.047 64.898,0.193 68.502,6.434 72.104,12.674 79.311,12.674 86.517,12.674 90.119,6.433 93.723,0.193 
			90.119,-6.048 86.517,-12.288 79.311,-12.288 		"/>
		
			<polygon fill-rule="evenodd" clip-rule="evenodd" fill="#5B6D7C" stroke="#5FA6A4" stroke-width="1.1999" stroke-miterlimit="2.6131" points="
			72.104,112.288 68.502,106.047 64.898,99.807 68.502,93.566 72.104,87.325 79.311,87.325 86.517,87.325 90.119,93.566 
			93.723,99.807 90.119,106.047 86.517,112.288 79.311,112.288 		"/>
		
			<polygon fill-rule="evenodd" clip-rule="evenodd" fill="#5B6D7C" stroke="#5FA6A4" stroke-width="1.1999" stroke-miterlimit="2.6131" points="
			71.983,12.554 75.586,18.795 79.189,25.036 75.586,31.276 71.983,37.517 64.777,37.517 57.571,37.517 53.969,31.276 
			50.366,25.035 53.969,18.795 57.571,12.555 64.777,12.555 		"/>
		
			<polygon fill-rule="evenodd" clip-rule="evenodd" fill="#5B6D7C" stroke="#5FA6A4" stroke-width="1.1999" stroke-miterlimit="2.6131" points="
			28.748,12.554 25.145,18.795 21.542,25.036 25.145,31.276 28.748,37.517 35.954,37.517 43.16,37.517 46.763,31.276 50.366,25.035 
			46.763,18.795 43.16,12.555 35.954,12.555 		"/>
		
			<polygon fill-rule="evenodd" clip-rule="evenodd" fill="#5B6D7C" stroke="#5FA6A4" stroke-width="1.1999" stroke-miterlimit="2.6131" points="
			7.13,49.998 10.733,43.757 14.336,37.517 21.542,37.517 28.748,37.517 32.351,43.757 35.954,49.998 32.351,56.238 28.748,62.479 
			21.542,62.479 14.336,62.479 10.733,56.238 		"/>
		
			<polygon fill-rule="evenodd" clip-rule="evenodd" fill="#5B6D7C" stroke="#5FA6A4" stroke-width="1.1999" stroke-miterlimit="2.6131" points="
			28.748,87.441 35.954,87.441 43.16,87.44 46.763,81.2 50.366,74.96 46.763,68.719 43.16,62.479 35.954,62.479 28.748,62.479 
			25.145,68.719 21.542,74.96 25.145,81.2 		"/>
		
			<polygon fill-rule="evenodd" clip-rule="evenodd" fill="#5B6D7C" stroke="#5FA6A4" stroke-width="1.1999" stroke-miterlimit="2.6131" points="
			71.983,87.441 64.777,87.441 57.571,87.44 53.969,81.2 50.366,74.96 53.969,68.719 57.571,62.479 64.777,62.479 71.983,62.479 
			75.586,68.719 79.189,74.96 75.586,81.2 		"/>
		
			<polygon fill-rule="evenodd" clip-rule="evenodd" fill="#5B6D7C" stroke="#5FA6A4" stroke-width="1.1999" stroke-miterlimit="2.6131" points="
			93.602,49.998 89.998,43.757 86.396,37.517 79.189,37.517 71.983,37.517 68.381,43.757 64.777,49.998 68.381,56.238 
			71.983,62.479 79.189,62.479 86.396,62.479 89.998,56.238 		"/>
		
			<polygon fill-rule="evenodd" clip-rule="evenodd" fill="none" stroke="#5FA6A4" stroke-width="1.1999" stroke-miterlimit="2.6131" points="
			41.925,49.998 46.124,47.548 46.145,42.688 50.366,45.1 54.586,42.688 54.607,47.548 58.807,49.998 54.607,52.446 54.586,57.308 
			50.366,54.896 46.145,57.308 46.124,52.446 		"/>
		
			<polygon fill-rule="evenodd" clip-rule="evenodd" fill="none" stroke="#5FA6A4" stroke-width="1.1999" stroke-miterlimit="2.6131" points="
			25.435,49.998 37.837,42.764 37.9,28.407 50.366,35.532 62.831,28.407 62.894,42.764 75.296,49.998 62.894,57.23 62.831,71.588 
			50.366,64.463 37.9,71.588 37.837,57.23 		"/>
		
			<polygon fill-rule="evenodd" clip-rule="evenodd" fill="none" stroke="#5FA6A4" stroke-width="1.1999" stroke-miterlimit="2.6131" points="
			75.296,49.998 77.025,48.989 77.035,46.987 78.772,47.98 80.512,46.987 80.52,48.989 82.25,49.998 80.52,51.006 80.512,53.009 
			78.772,52.015 77.035,53.009 77.025,51.006 		"/>
		
			<polygon fill-rule="evenodd" clip-rule="evenodd" fill="none" stroke="#5FA6A4" stroke-width="1.1999" stroke-miterlimit="2.6131" points="
			62.757,71.631 64.491,72.631 66.233,71.643 66.235,73.646 67.962,74.66 66.229,75.663 66.212,77.665 64.478,76.665 62.736,77.652 
			62.733,75.65 61.008,74.636 62.741,73.634 		"/>
		
			<polygon fill-rule="evenodd" clip-rule="evenodd" fill="none" stroke="#5FA6A4" stroke-width="1.1999" stroke-miterlimit="2.6131" points="
			37.975,71.631 36.239,72.631 34.498,71.643 34.496,73.646 32.77,74.66 34.503,75.663 34.519,77.665 36.253,76.665 37.995,77.652 
			37.997,75.65 39.723,74.636 37.99,73.634 		"/>
		
			<polygon fill-rule="evenodd" clip-rule="evenodd" fill="none" stroke="#5FA6A4" stroke-width="1.1999" stroke-miterlimit="2.6131" points="
			25.435,49.998 23.705,48.989 23.696,46.987 21.958,47.98 20.22,46.987 20.211,48.989 18.481,49.998 20.211,51.006 20.22,53.009 
			21.958,52.015 23.696,53.009 23.705,51.006 		"/>
		
			<polygon fill-rule="evenodd" clip-rule="evenodd" fill="none" stroke="#5FA6A4" stroke-width="1.1999" stroke-miterlimit="2.6131" points="
			25.32,98.678 23.59,97.669 23.581,95.667 21.843,96.66 20.104,95.667 20.096,97.669 18.366,98.678 20.096,99.687 20.104,101.688 
			21.843,100.695 23.581,101.688 23.59,99.687 		"/>
		
			<polygon fill-rule="evenodd" clip-rule="evenodd" fill="none" stroke="#5FA6A4" stroke-width="1.1999" stroke-miterlimit="2.6131" points="
			37.975,28.364 37.99,26.362 39.723,25.359 37.997,24.345 37.995,22.342 36.253,23.33 34.519,22.33 34.503,24.333 32.77,25.335 
			34.496,26.35 34.498,28.352 36.239,27.365 		"/>
		
			<polygon fill-rule="evenodd" clip-rule="evenodd" fill="none" stroke="#5FA6A4" stroke-width="1.1999" stroke-miterlimit="2.6131" points="
			62.757,28.364 62.741,26.362 61.008,25.359 62.733,24.345 62.736,22.342 64.478,23.33 66.212,22.33 66.229,24.333 67.962,25.335 
			66.235,26.35 66.233,28.352 64.491,27.365 		"/>
		
			<polygon fill-rule="evenodd" clip-rule="evenodd" fill="none" stroke="#5FA6A4" stroke-width="1.1999" stroke-miterlimit="2.6131" points="
			50.366,25.067 57.599,37.47 71.956,37.532 64.831,49.998 71.956,62.463 57.599,62.525 50.366,74.929 43.132,62.525 28.775,62.463 
			35.9,49.998 28.775,37.532 43.132,37.47 		"/>
		
			<polygon fill-rule="evenodd" clip-rule="evenodd" fill="none" stroke="#5FA6A4" stroke-width="1.1999" stroke-miterlimit="2.6131" points="
			50.366,35.432 53.501,37.242 54.455,37.798 54.477,42.659 58.697,40.247 59.622,40.776 62.98,42.715 62.98,47.563 58.807,49.998 
			62.98,52.432 62.98,57.28 58.661,59.773 54.477,57.382 54.455,62.202 50.366,64.563 46.166,62.139 46.145,57.382 42.016,59.742 
			37.751,57.28 37.751,52.432 41.925,49.998 37.751,47.563 37.751,42.715 41.951,40.29 46.145,42.688 46.166,37.856 		"/>
		
			<polygon fill-rule="evenodd" clip-rule="evenodd" fill="none" stroke="#5FA6A4" stroke-width="1.1999" stroke-miterlimit="2.6131" points="
			50.366,15.18 64.479,23.329 66.212,22.331 66.229,24.333 67.962,25.335 67.958,25.337 80.519,32.589 80.519,48.989 82.179,50.007 
			80.519,50.977 80.519,67.406 67.958,74.658 66.235,73.646 66.233,71.644 64.491,72.631 62.757,71.631 62.741,73.634 
			61.008,74.636 62.733,75.65 62.736,77.653 64.478,76.665 64.479,76.666 50.366,84.815 36.251,76.666 34.519,77.665 34.503,75.662 
			32.77,74.66 32.772,74.658 20.212,67.406 20.212,51.333 20.211,51.006 18.481,49.998 20.211,48.989 20.212,48.662 20.212,32.589 
			32.772,25.337 32.77,25.335 34.503,24.333 34.519,22.331 36.251,23.329 		"/>
		
			<polyline fill-rule="evenodd" clip-rule="evenodd" fill="none" stroke="#5FA6A4" stroke-width="1.1999" stroke-miterlimit="2.6131" points="
			68.291,74.466 84.681,65.004 92.614,69.515 		"/>
		
			<polyline fill-rule="evenodd" clip-rule="evenodd" fill="none" stroke="#5FA6A4" stroke-width="1.1999" stroke-miterlimit="2.6131" points="
			22.16,68.604 15.922,65.004 12.419,67.098 		"/>
		
			<path fill-rule="evenodd" clip-rule="evenodd" fill="none" stroke="#5FA6A4" stroke-width="1.1999" stroke-miterlimit="2.6131" d="
			M80.481,67.25v4.856l8.053,4.886v9.177l13.006,7.625 M102.358,83.028L80.467,95.625"/>
		
			<polyline fill-rule="evenodd" clip-rule="evenodd" fill="none" stroke="#5FA6A4" stroke-width="1.1999" stroke-miterlimit="2.6131" points="
			20.215,67.25 20.215,72.106 12.178,76.979 12.164,86.169 -2.354,94.706 		"/>
		
			<line fill-rule="evenodd" clip-rule="evenodd" fill="none" stroke="#5FA6A4" stroke-width="1.1999" stroke-miterlimit="2.6131" x1="21.971" y1="52.015" x2="-0.583" y2="64.955"/>
		
			<path fill-rule="evenodd" clip-rule="evenodd" fill="none" stroke="#5FA6A4" stroke-width="1.1999" stroke-miterlimit="2.6131" d="
			M80.493,96.374V76.816l7.93-4.577v-9.52l12.674-7.463 M101.276,65.038L78.772,52.015"/>
		
			<polyline fill-rule="evenodd" clip-rule="evenodd" fill="none" stroke="#5FA6A4" stroke-width="1.1999" stroke-miterlimit="2.6131" points="
			-1.256,54.907 12.275,62.72 12.275,72.239 20.204,76.816 20.204,95.724 		"/>
		
			<polyline fill-rule="evenodd" clip-rule="evenodd" fill="none" stroke="#5FA6A4" stroke-width="1.1999" stroke-miterlimit="2.6131" points="
			66.235,73.646 84.459,84.356 92.715,79.423 		"/>
		
			<polyline fill-rule="evenodd" clip-rule="evenodd" fill="none" stroke="#5FA6A4" stroke-width="1.1999" stroke-miterlimit="2.6131" points="
			34.377,73.646 16.153,84.356 12.307,81.952 		"/>
		
			<line fill-rule="evenodd" clip-rule="evenodd" fill="none" stroke="#5FA6A4" stroke-width="1.1999" stroke-miterlimit="2.6131" x1="72.346" y1="86.813" x2="64.839" y2="99.815"/>
		
			<line fill-rule="evenodd" clip-rule="evenodd" fill="none" stroke="#5FA6A4" stroke-width="1.1999" stroke-miterlimit="2.6131" x1="28.212" y1="86.813" x2="35.719" y2="99.815"/>
		
			<polyline fill-rule="evenodd" clip-rule="evenodd" fill="none" stroke="#5FA6A4" stroke-width="1.1999" stroke-miterlimit="2.6131" points="
			62.734,76.651 62.736,96.682 58.707,99.008 54.378,96.509 54.378,87.307 49.037,84.048 		"/>
		
			<polyline fill-rule="evenodd" clip-rule="evenodd" fill="none" stroke="#5FA6A4" stroke-width="1.1999" stroke-miterlimit="2.6131" points="
			37.991,76.651 37.99,96.682 42.02,99.008 46.349,96.509 46.349,87.307 51.689,84.048 		"/>
		
			<polyline fill-rule="evenodd" clip-rule="evenodd" fill="none" stroke="#5FA6A4" stroke-width="1.1999" stroke-miterlimit="2.6131" points="
			76.63,99.57 58.199,89.638 50.148,94.286 42.098,89.638 24.897,98.916 		"/>
		
			<line fill-rule="evenodd" clip-rule="evenodd" fill="none" stroke="#5FA6A4" stroke-width="1.1999" stroke-miterlimit="2.6131" x1="-1.174" y1="83.341" x2="20.103" y2="95.625"/>
		
			<polygon fill-rule="evenodd" clip-rule="evenodd" fill="none" stroke="#5FA6A4" stroke-width="1.1999" stroke-miterlimit="2.6131" points="
			75.25,98.678 76.979,97.669 76.988,95.667 78.727,96.66 80.465,95.667 80.474,97.669 82.203,98.678 80.474,99.687 80.465,101.688 
			78.727,100.695 76.988,101.688 76.979,99.687 		"/>
		
			<polygon fill-rule="evenodd" clip-rule="evenodd" fill="none" stroke="#5FA6A4" stroke-width="1.1999" stroke-miterlimit="2.6131" points="
			25.379,1.385 23.65,2.394 23.641,4.396 21.902,3.402 20.164,4.396 20.155,2.394 18.426,1.385 20.155,0.376 20.164,-1.626 
			21.902,-0.633 23.641,-1.626 23.65,0.376 		"/>
		
			<polyline fill-rule="evenodd" clip-rule="evenodd" fill="none" stroke="#5FA6A4" stroke-width="1.1999" stroke-miterlimit="2.6131" points="
			68.351,25.596 84.74,35.059 88.354,32.903 		"/>
		
			<polyline fill-rule="evenodd" clip-rule="evenodd" fill="none" stroke="#5FA6A4" stroke-width="1.1999" stroke-miterlimit="2.6131" points="
			22.219,31.458 15.982,35.059 12.402,32.923 		"/>
		
			<polyline fill-rule="evenodd" clip-rule="evenodd" fill="none" stroke="#5FA6A4" stroke-width="1.1999" stroke-miterlimit="2.6131" points="
			20.275,32.813 20.275,27.957 12.223,23.154 12.223,13.894 -0.203,6.563 		"/>
		
			<polyline fill-rule="evenodd" clip-rule="evenodd" fill="none" stroke="#5FA6A4" stroke-width="1.1999" stroke-miterlimit="2.6131" points="
			0.028,44.448 12.334,37.343 12.334,27.907 20.263,23.246 20.263,4.339 		"/>
		
			<polyline fill-rule="evenodd" clip-rule="evenodd" fill="none" stroke="#5FA6A4" stroke-width="1.1999" stroke-miterlimit="2.6131" points="
			66.295,26.417 84.519,15.706 88.552,18.116 		"/>
		
			<polyline fill-rule="evenodd" clip-rule="evenodd" fill="none" stroke="#5FA6A4" stroke-width="1.1999" stroke-miterlimit="2.6131" points="
			34.437,26.417 16.213,15.706 12.304,18.033 		"/>
		
			<line fill-rule="evenodd" clip-rule="evenodd" fill="none" stroke="#5FA6A4" stroke-width="1.1999" stroke-miterlimit="2.6131" x1="72.405" y1="13.25" x2="64.898" y2="0.247"/>
		
			<line fill-rule="evenodd" clip-rule="evenodd" fill="none" stroke="#5FA6A4" stroke-width="1.1999" stroke-miterlimit="2.6131" x1="28.272" y1="13.25" x2="35.779" y2="0.247"/>
		
			<polyline fill-rule="evenodd" clip-rule="evenodd" fill="none" stroke="#5FA6A4" stroke-width="1.1999" stroke-miterlimit="2.6131" points="
			62.794,23.411 62.795,3.381 58.767,1.055 54.438,3.554 54.438,12.756 49.097,16.014 		"/>
		
			<polyline fill-rule="evenodd" clip-rule="evenodd" fill="none" stroke="#5FA6A4" stroke-width="1.1999" stroke-miterlimit="2.6131" points="
			38.051,23.411 38.05,3.381 42.079,1.055 46.408,3.554 46.408,12.756 51.749,16.014 		"/>
		
			<polyline fill-rule="evenodd" clip-rule="evenodd" fill="none" stroke="#5FA6A4" stroke-width="1.1999" stroke-miterlimit="2.6131" points="
			76.689,0.492 58.259,10.425 50.208,5.776 42.157,10.425 24.957,1.147 		"/>
		
			<line fill-rule="evenodd" clip-rule="evenodd" fill="none" stroke="#5FA6A4" stroke-width="1.1999" stroke-miterlimit="2.6131" x1="-0.212" y1="16.201" x2="20.163" y2="4.438"/>
		
			<polygon fill-rule="evenodd" clip-rule="evenodd" fill="none" stroke="#5FA6A4" stroke-width="1.1999" stroke-miterlimit="2.6131" points="
			75.31,1.385 77.039,2.394 77.048,4.396 78.786,3.402 80.524,4.396 80.533,2.394 82.263,1.385 80.533,0.376 80.524,-1.626 
			78.786,-0.633 77.048,-1.626 77.039,0.376 		"/>
		
			<path fill-rule="evenodd" clip-rule="evenodd" fill="none" stroke="#5FA6A4" stroke-width="1.1999" stroke-miterlimit="2.6131" d="
			M80.526,4.438l21.019,12.19 M101.868,6.246l-13.274,7.648v9.257l-8.052,4.805v4.856"/>
		
			<path fill-rule="evenodd" clip-rule="evenodd" fill="none" stroke="#5FA6A4" stroke-width="1.1999" stroke-miterlimit="2.6131" d="
			M79.547,47.538l21.64-12.564 M101.369,44.861l-12.887-7.519l-0.123-9.397l-7.806-4.7V3.688"/>
		
			<line fill-rule="evenodd" clip-rule="evenodd" fill="none" stroke="#5FA6A4" stroke-width="1.1999" stroke-miterlimit="2.6131" x1="21.194" y1="47.538" x2="-0.175" y2="35.208"/>
		
			<polygon fill-rule="evenodd" clip-rule="evenodd" fill="none" stroke="#5FA6A4" stroke-width="1.1999" stroke-miterlimit="2.6131" points="
			101.156,25.563 96.957,23.114 96.936,18.253 92.715,20.665 88.495,18.253 88.474,23.114 84.274,25.563 88.474,28.012 
			88.495,32.873 92.715,30.461 96.936,32.873 96.957,28.012 		"/>
		
			<polygon fill-rule="evenodd" clip-rule="evenodd" fill="none" stroke="#5FA6A4" stroke-width="1.1999" stroke-miterlimit="2.6131" points="
			16.353,25.563 12.154,23.114 12.132,18.253 7.912,20.665 3.691,18.253 3.67,23.114 -0.529,25.563 3.67,28.012 3.691,32.873 
			7.912,30.461 12.132,32.873 12.154,28.012 		"/>
		
			<polygon fill-rule="evenodd" clip-rule="evenodd" fill="none" stroke="#5FA6A4" stroke-width="1.1999" stroke-miterlimit="2.6131" points="
			101.156,74.543 96.957,72.094 96.936,67.232 92.715,69.646 88.495,67.232 88.474,72.094 84.274,74.543 88.474,76.992 
			88.495,81.853 92.715,79.44 96.936,81.853 96.957,76.992 		"/>
		
			<polygon fill-rule="evenodd" clip-rule="evenodd" fill="none" stroke="#5FA6A4" stroke-width="1.1999" stroke-miterlimit="2.6131" points="
			16.353,74.543 12.154,72.094 12.132,67.232 7.912,69.646 3.691,67.232 3.67,72.094 -0.529,74.543 3.67,76.992 3.691,81.853 
			7.912,79.44 12.132,81.853 12.154,76.992 		"/>
	</g>
</g>
</svg>
